<svg width="20" height="21" viewBox="0 0 20 21" fill="none" xmlns="http://www.w3.org/2000/svg">
<path d="M7.33319 10.5058C7.33011 8.75721 8.74539 7.3367 10.4937 7.33362C12.2423 7.3302 13.6631 8.74489 13.6665 10.4939C13.6699 12.2428 12.2546 13.663 10.5057 13.6664C8.75738 13.6698 7.33657 12.2548 7.33319 10.5058ZM5.62215 10.5092C5.62739 13.2034 7.81554 15.3827 10.5091 15.3775C13.2029 15.3722 15.3834 13.1847 15.3782 10.4904C15.373 7.79715 13.1845 5.61668 10.4903 5.62191C7.79673 5.62714 5.61692 7.81563 5.62215 10.5092ZM14.4209 5.42185C14.4222 6.05097 14.9337 6.56041 15.5629 6.55918C16.1923 6.55796 16.7017 6.04666 16.7008 5.41755C16.6996 4.78839 16.188 4.27866 15.5586 4.27988C14.9291 4.28111 14.4197 4.79266 14.4209 5.42185ZM6.67636 18.2394C5.75018 18.1991 5.24724 18.0452 4.91206 17.9163C4.4682 17.7445 4.15147 17.5386 3.81811 17.2077C3.48539 16.8756 3.27884 16.5598 3.10554 16.1168C2.97536 15.7816 2.81868 15.2793 2.77527 14.3531C2.72817 13.3518 2.71741 13.0514 2.71281 10.5148C2.70787 7.97877 2.71711 7.67836 2.76083 6.67615C2.8005 5.75057 2.95536 5.24699 3.08402 4.91212C3.25576 4.46766 3.46108 4.15152 3.79258 3.81817C4.12468 3.48485 4.44048 3.27889 4.88371 3.10559C5.21862 2.97478 5.72094 2.81933 6.64682 2.77532C7.6487 2.72793 7.9488 2.71776 10.4848 2.71283C13.0213 2.70793 13.3217 2.71683 14.324 2.76088C15.2495 2.80118 15.7531 2.95448 16.0877 3.08407C16.5318 3.25581 16.8485 3.46051 17.1816 3.79264C17.5146 4.12477 17.7212 4.43994 17.8945 4.8841C18.0252 5.21808 18.1807 5.72103 18.2244 6.64657C18.2721 7.64849 18.2829 7.94893 18.2875 10.4849C18.2924 13.0215 18.2832 13.322 18.2392 14.3236C18.1989 15.2497 18.0453 15.753 17.916 16.0885C17.7442 16.532 17.539 16.8488 17.2071 17.1822C16.8753 17.5143 16.5595 17.7214 16.116 17.8947C15.7817 18.0252 15.2788 18.181 14.3535 18.225C13.3516 18.2721 13.0515 18.2828 10.5146 18.2875C7.97864 18.2924 7.67857 18.2828 6.67636 18.2394ZM6.56555 1.0658C5.55473 1.11348 4.86434 1.27539 4.26102 1.51178C3.6365 1.75525 3.1071 2.08156 2.58048 2.61037C2.05319 3.13947 1.72937 3.6698 1.48775 4.29495C1.25385 4.8998 1.09532 5.59051 1.05068 6.60197C1.00637 7.61528 0.996202 7.93847 1.00114 10.5182C1.00607 13.0976 1.01743 13.4214 1.06574 14.435C1.11406 15.4455 1.27538 16.1356 1.51176 16.7392C1.75554 17.3637 2.0815 17.8928 2.61061 18.4198C3.13942 18.9468 3.67009 19.2703 4.29553 19.5122C4.89974 19.7458 5.59072 19.905 6.60188 19.9493C7.61515 19.9939 7.93863 20.0038 10.5177 19.9988C13.098 19.9939 13.4215 19.9826 14.4348 19.9345C15.4456 19.8862 16.1354 19.7243 16.7393 19.4885C17.3638 19.2441 17.8932 18.9188 18.4199 18.3897C18.9465 17.8608 19.2703 17.3302 19.512 16.7047C19.7459 16.1005 19.905 15.4095 19.949 14.399C19.9933 13.3851 20.0038 13.0612 19.9989 10.4818C19.9939 7.90213 19.9823 7.57895 19.9343 6.56594C19.8862 5.55452 19.7243 4.86469 19.4882 4.26077C19.2442 3.63626 18.9185 3.10745 18.3897 2.5802C17.8609 2.05354 17.3303 1.72909 16.7048 1.4881C16.1003 1.25413 15.4096 1.09471 14.3985 1.05099C13.3852 1.00609 13.0617 0.996218 10.4817 1.00115C7.90231 1.00609 7.57882 1.01715 6.56555 1.0658Z" fill="white"/>
</svg>
