<svg width="20" height="21" viewBox="0 0 20 21" fill="none" xmlns="http://www.w3.org/2000/svg">
<path d="M0 10.5C0 14.5557 2.54199 18.0184 6.11971 19.381C6.0325 18.6392 5.9401 17.4161 6.13938 16.5581C6.31119 15.82 7.24857 11.8571 7.24857 11.8571C7.24857 11.8571 6.9658 11.2912 6.9658 10.4525C6.9658 9.13846 7.72766 8.15654 8.67691 8.15654C9.48441 8.15654 9.87369 8.76254 9.87369 9.4884C9.87369 10.3 9.35676 11.5127 9.08994 12.6379C8.86766 13.5793 9.56271 14.3468 10.4904 14.3468C12.1711 14.3468 13.464 12.574 13.464 10.0157C13.464 7.75057 11.8364 6.16822 9.51262 6.16822C6.82293 6.16822 5.24318 8.18623 5.24318 10.2721C5.24318 11.0852 5.55602 11.9562 5.94715 12.4304C5.99656 12.4827 6.02405 12.5519 6.02396 12.6238C6.02396 12.6497 6.02025 12.6761 6.0132 12.7013C5.94121 13.0008 5.7809 13.6428 5.75047 13.7738C5.70816 13.9467 5.61353 13.9838 5.43355 13.9C4.25273 13.3504 3.51463 11.6237 3.51463 10.2369C3.51463 7.25293 5.68182 4.51389 9.76236 4.51389C13.0432 4.51389 15.5934 6.85178 15.5934 9.97564C15.5934 13.235 13.5386 15.8586 10.6856 15.8586C9.72674 15.8586 8.82684 15.3595 8.51809 14.7713C8.51809 14.7713 8.04383 16.5781 7.92879 17.0197C7.70576 17.8781 7.08641 18.9643 6.70232 19.5807C7.58738 19.8538 8.52625 20 9.5 20C14.7465 20 19 15.7462 19 10.5C19 5.25385 14.7465 1 9.5 1C4.25348 1 0 5.25348 0 10.5Z" fill="white"/>
</svg>
