<svg width="20" height="21" viewBox="0 0 20 21" fill="none" xmlns="http://www.w3.org/2000/svg">
<path d="M17.3802 1.14125C17.3802 1.14125 19.1378 0.448682 18.9913 2.13064C18.9425 2.82322 18.5031 5.24722 18.1613 7.86912L16.9896 15.6358C16.9896 15.6358 16.892 16.7736 16.0131 16.9715C15.1343 17.1694 13.8161 16.2789 13.5719 16.081C13.3766 15.9327 9.91022 13.7065 8.68961 12.6182C8.34784 12.3214 7.95725 11.7277 8.73842 11.0351L13.8649 6.08823C14.4508 5.49458 15.0367 4.10944 12.5955 5.7914L5.76022 10.491C5.76022 10.491 4.97904 10.9857 3.51437 10.5405L0.340834 9.55108C0.340834 9.55108 -0.830929 8.80905 1.17083 8.06697C6.05318 5.74189 12.0584 3.36736 17.3802 1.14125Z" fill="white"/>
</svg>
